<svg width="263" height="211" viewBox="0 0 263 211" fill="none" xmlns="http://www.w3.org/2000/svg">
<path opacity="0.099" d="M142.572 209.049L34.5115 141.24C31.0702 139.186 28.1219 135.82 31.4742 133.613L139.919 67.2483C141.545 66.1783 144.014 65.4753 145.671 66.4983L259.088 136.403C262.529 138.523 263.146 144.431 259.718 146.573L156.812 208.941C154.663 210.27 152.21 210.981 149.706 211C147.203 211.018 144.739 210.345 142.572 209.048V209.049Z" fill="#6862E6"/>
<path d="M142.763 177.689L34.5187 112.513C31.0727 110.539 28.1183 107.304 31.4769 105.182L140.106 41.3928C141.735 40.3628 144.208 39.6878 145.869 40.6728L259.478 107.863C262.924 109.901 263.542 115.58 260.109 117.637L157.028 177.587C154.864 178.866 152.41 179.548 149.909 179.565C147.407 179.583 144.944 178.937 142.763 177.689V177.689Z" fill="#5B36A0"/>
<path d="M142.763 174.681L34.5187 109.503C31.0727 107.528 28.1183 104.293 31.4769 102.171L140.106 38.3829C141.735 37.3539 144.208 36.6789 145.869 37.6629L259.478 104.853C262.924 106.892 263.542 112.57 260.109 114.628L157.028 174.577C154.864 175.856 152.41 176.538 149.909 176.556C147.407 176.574 144.945 175.927 142.763 174.68V174.681Z" fill="#6862E6"/>
<path style="mix-blend-mode:multiply" opacity="0.25" d="M151.688 88.6869L130.329 101.105C130.329 101.105 163.232 121.562 169.96 124.443L182.261 106.436" fill="url(#paint0_linear)"/>
<path style="mix-blend-mode:multiply" opacity="0.25" d="M144.309 148.263L122.945 135.87L101.58 148.288C101.58 148.288 112.707 155.208 123.343 161.562C130.096 156.694 136.855 151.774 144.309 148.262V148.263Z" fill="url(#paint1_linear)"/>
<path style="mix-blend-mode:multiply" opacity="0.46" d="M98.2792 71.7349L84.7278 79.6129C84.7278 79.6129 85.8758 86.8349 92.6049 89.7159L110.347 78.1399" fill="url(#paint2_linear)"/>
<path d="M104.912 79.6129C109.426 79.6129 113.086 76.9871 113.086 73.7479C113.086 70.5088 109.426 67.8829 104.912 67.8829C100.398 67.8829 96.7387 70.5088 96.7387 73.7479C96.7387 76.9871 100.398 79.6129 104.912 79.6129Z" fill="#68E1FD"/>
<path d="M104.906 72.8409C108.288 72.8409 111.029 71.6978 111.029 70.2879C111.029 68.8779 108.288 67.7349 104.906 67.7349C101.525 67.7349 98.7835 68.8779 98.7835 70.2879C98.7835 71.6978 101.525 72.8409 104.906 72.8409Z" fill="#974C26"/>
<path d="M104.685 66.0309C104.685 64.8799 104.647 63.7279 104.559 62.5769C104.533 62.2769 104.506 61.9789 104.476 61.6829L104.414 61.0979C104.414 60.9249 104.325 60.4549 104.325 60.4999C104.287 60.2639 104.247 60.0299 104.206 59.7999C103.538 55.8918 102.048 52.1774 99.8383 48.9119C99.0067 50.9283 98.5918 53.0978 98.6197 55.2849C98.6197 55.9279 98.6697 56.5709 98.7207 57.1749V57.5549C98.9694 59.0467 99.3497 60.5127 99.857 61.9349C100.219 62.9715 100.659 63.9776 101.176 64.9439C101.733 66.0317 102.337 67.0938 102.987 68.1269C103.492 68.9369 103.972 69.6569 104.459 70.3459C104.61 68.9119 104.679 67.4709 104.684 66.0309H104.685ZM101.473 53.0849C101.505 52.9367 101.505 52.783 101.473 52.6349C101.628 52.7979 101.782 52.9649 101.934 53.1369C101.782 53.0928 101.624 53.0752 101.466 53.0849H101.473Z" fill="#999A1C"/>
<path d="M106.787 66.9179C107.418 65.9479 107.974 64.9879 108.51 63.9409C108.649 63.6749 108.784 63.4089 108.914 63.1429L109.172 62.6089L109.419 62.0559L109.691 61.4129C111.203 57.7546 111.92 53.8057 111.792 49.8379C110.018 51.0759 108.514 52.674 107.374 54.5319C107.047 55.0679 106.741 55.6173 106.458 56.1789L106.333 56.4159L106.301 56.5189C106.181 56.8089 106.061 57.0989 105.947 57.3939C105.529 58.5144 105.189 59.664 104.932 60.8339C104.686 61.9062 104.523 62.9966 104.445 64.0949C104.334 65.3156 104.279 66.5409 104.281 67.7669C104.281 68.7249 104.281 69.5999 104.338 70.4419C105.177 69.3039 106.023 68.1339 106.787 66.9179V66.9179ZM110.952 54.2559C111.051 54.1429 111.125 54.0089 111.167 53.8629C111.213 54.0859 111.254 54.3009 111.287 54.5069C111.189 54.4069 111.076 54.3219 110.953 54.2559H110.952Z" fill="#999A1C"/>
<path d="M106.743 69.7859C107.378 69.4649 108.009 69.1179 108.637 68.7449L109.11 68.4489L109.419 68.2489L109.722 68.0309L110.075 67.7669C112.048 66.2912 113.685 64.3979 114.872 62.2169C113.525 62.305 112.21 62.675 111.009 63.3039C110.662 63.4839 110.327 63.6839 109.993 63.8889L109.849 63.9789L109.798 64.0239L109.33 64.3779C108.749 64.8449 108.2 65.3549 107.69 65.9019C107.218 66.3999 106.785 66.9359 106.395 67.5029C105.957 68.1342 105.536 68.7778 105.133 69.4329C104.831 69.9469 104.559 70.4289 104.318 70.8989C105.133 70.5519 105.947 70.1909 106.742 69.7859H106.743ZM113.003 64.3199C113.093 64.2916 113.175 64.2435 113.244 64.1789C113.198 64.3155 113.147 64.4506 113.092 64.5839C113.076 64.4941 113.046 64.4075 113.004 64.3269V64.3199H113.003ZM104.685 66.0309C104.685 64.8799 104.647 63.7279 104.559 62.5769C104.533 62.2769 104.506 61.9789 104.476 61.6829L104.414 61.0979C104.414 60.9249 104.325 60.4549 104.325 60.4999C104.287 60.2639 104.247 60.0299 104.206 59.7999C103.538 55.8918 102.048 52.1774 99.8383 48.9119C99.0067 50.9283 98.5918 53.0978 98.6197 55.2849C98.6197 55.9279 98.6697 56.5709 98.7207 57.1749V57.5549C98.9694 59.0467 99.3497 60.5127 99.857 61.9349C100.219 62.9715 100.659 63.9776 101.176 64.9439C101.733 66.0317 102.337 67.0938 102.987 68.1269C103.492 68.9369 103.972 69.6569 104.459 70.3459C104.61 68.9119 104.679 67.4709 104.684 66.0309H104.685ZM101.473 53.0849C101.505 52.9367 101.505 52.783 101.473 52.6349C101.628 52.7979 101.782 52.9649 101.934 53.1369C101.782 53.0928 101.624 53.0752 101.466 53.0849H101.473Z" fill="#999A1C"/>
<path d="M106.787 66.9179C107.418 65.9479 107.974 64.9879 108.51 63.9409C108.649 63.6749 108.784 63.4089 108.914 63.1429L109.172 62.6089L109.419 62.0559L109.691 61.4129C111.203 57.7546 111.92 53.8057 111.792 49.8379C110.018 51.0759 108.514 52.674 107.374 54.5319C107.047 55.0679 106.741 55.6173 106.458 56.1789L106.333 56.4159L106.301 56.5189C106.181 56.8089 106.061 57.0989 105.947 57.3939C105.529 58.5144 105.189 59.664 104.932 60.8339C104.686 61.9062 104.523 62.9966 104.445 64.0949C104.334 65.3156 104.279 66.5409 104.281 67.7669C104.281 68.7249 104.281 69.5999 104.338 70.4419C105.177 69.3039 106.023 68.1339 106.787 66.9179V66.9179ZM110.952 54.2559C111.051 54.1429 111.125 54.0089 111.167 53.8629C111.213 54.0859 111.254 54.3009 111.287 54.5069C111.189 54.4069 111.076 54.3219 110.953 54.2559H110.952Z" fill="#999A1C"/>
<path d="M106.743 69.7859C107.378 69.4649 108.009 69.1179 108.637 68.7449L109.11 68.4489L109.419 68.2489L109.722 68.0309L110.075 67.7669C112.048 66.2913 113.685 64.3979 114.872 62.2169C113.525 62.305 112.21 62.675 111.009 63.3039C110.662 63.4839 110.327 63.6839 109.993 63.8889L109.849 63.9789L109.798 64.0239L109.33 64.3779C108.749 64.8449 108.2 65.3549 107.69 65.9019C107.218 66.3999 106.785 66.9359 106.395 67.5029C105.957 68.1343 105.536 68.7778 105.133 69.4329C104.831 69.9469 104.559 70.4289 104.318 70.8989C105.133 70.5519 105.947 70.1909 106.742 69.7859H106.743ZM113.003 64.3199C113.093 64.2917 113.175 64.2435 113.243 64.1789C113.198 64.3156 113.147 64.4506 113.092 64.5839C113.076 64.4942 113.046 64.4075 113.004 64.3269V64.3199H113.003Z" fill="#999A1C"/>
<path d="M160.171 83.8379L148.349 89.6259C147.904 89.8441 147.525 90.1818 147.254 90.6026C146.983 91.0235 146.829 91.5117 146.81 92.0148C146.79 92.5179 146.906 93.017 147.144 93.4583C147.381 93.8996 147.733 94.2666 148.16 94.5199L176.177 111.176C176.783 111.537 177.501 111.645 178.184 111.478C178.866 111.312 179.458 110.883 179.838 110.282L186.647 99.4909" fill="#A1482D"/>
<path d="M224.468 55.9209L130.204 0.576882C129.557 0.19802 128.824 -0.000922181 128.078 3.21371e-06C127.332 0.000928608 126.6 0.201689 125.954 0.582154C125.308 0.96262 124.772 1.50942 124.399 2.16772C124.026 2.82603 123.829 3.5727 123.829 4.33288V61.9079C123.829 63.1949 124.502 64.3839 125.595 65.0279L226.09 124.134C226.436 124.338 226.83 124.446 227.23 124.446C227.631 124.446 228.024 124.339 228.371 124.135C228.717 123.931 229.005 123.637 229.205 123.283C229.405 122.93 229.511 122.529 229.51 122.121V64.7829C229.509 62.9842 229.042 61.2177 228.156 59.6617C227.271 58.1058 225.998 56.8154 224.467 55.9209H224.468Z" fill="#F47B56"/>
<path d="M130.209 4.93086L221.627 58.5189C222.603 59.0915 223.414 59.9161 223.978 60.9098C224.542 61.9034 224.839 63.031 224.84 64.1789V107.336C224.839 107.749 224.732 108.155 224.529 108.512C224.327 108.87 224.035 109.167 223.685 109.374C223.334 109.581 222.936 109.691 222.531 109.692C222.125 109.693 221.727 109.586 221.375 109.381L128.145 54.8989C127.796 54.695 127.506 54.4008 127.305 54.0461C127.103 53.6914 126.997 53.2888 126.997 52.8789V6.82786C126.997 6.44454 127.096 6.06792 127.283 5.73576C127.471 5.40361 127.741 5.1276 128.067 4.93543C128.392 4.74326 128.761 4.64168 129.137 4.64087C129.514 4.64007 129.883 4.74008 130.209 4.93086V4.93086Z" fill="white"/>
<path d="M168.674 86.3332C169.752 86.1216 170.434 84.9323 170.197 83.6768C169.96 82.4213 168.893 81.5751 167.815 81.7867C166.737 81.9983 166.056 83.1876 166.293 84.443C166.53 85.6985 167.596 86.5447 168.674 86.3332Z" fill="#AB643C"/>
<path opacity="0.32" d="M154.781 63.4839L197.264 89.4909L218.251 77.0599L180.753 54.8219" fill="url(#paint3_linear)"/>
<path d="M207.281 58.3069L161.351 29.7729C161.105 29.6281 160.826 29.553 160.542 29.5555C160.258 29.5579 159.98 29.6378 159.736 29.7868C159.493 29.9358 159.293 30.1485 159.158 30.4027C159.022 30.657 158.956 30.9437 158.966 31.2329V47.4899C158.964 47.7841 159.036 48.0739 159.177 48.331C159.317 48.5881 159.521 48.8037 159.767 48.9569L205.691 76.8869C205.932 77.0265 206.205 77.099 206.483 77.0972C206.76 77.0954 207.033 77.0193 207.272 76.8765C207.512 76.7337 207.711 76.5293 207.848 76.2836C207.986 76.038 208.058 75.7598 208.057 75.4769L208.297 60.3199C208.314 59.9232 208.23 59.5287 208.052 59.1756C207.874 58.8225 207.608 58.523 207.281 58.3069V58.3069Z" fill="#E2AC00"/>
<path d="M196.293 66.6728C197.94 69.0208 200.836 69.6768 202.756 68.1458C204.674 66.6158 204.895 63.4708 203.247 61.1298C201.6 58.7898 198.703 58.1268 196.784 59.6578C194.866 61.1878 194.645 64.3268 196.293 66.6738V66.6728Z" fill="white"/>
<path d="M191.786 55.4068L173.053 43.9148C172.892 43.8398 172.71 43.8282 172.541 43.8823C172.373 43.9363 172.23 44.0522 172.141 44.2074C172.051 44.3625 172.021 44.5461 172.057 44.7224C172.093 44.8987 172.191 45.0553 172.334 45.1618L191.067 56.6538C191.227 56.7288 191.409 56.7404 191.578 56.6864C191.746 56.6323 191.889 56.5165 191.979 56.3613C192.068 56.2061 192.098 56.0226 192.062 55.8463C192.027 55.6699 191.928 55.5134 191.786 55.4068V55.4068ZM191.016 60.0758L165.195 44.2358C165.037 44.1792 164.864 44.1812 164.707 44.2414C164.55 44.3017 164.419 44.4164 164.337 44.5653C164.255 44.7143 164.227 44.888 164.258 45.056C164.289 45.224 164.377 45.3754 164.506 45.4838L190.296 61.3298C190.457 61.4061 190.64 61.4185 190.81 61.3647C190.979 61.3109 191.122 61.1947 191.212 61.0388C191.302 60.8829 191.332 60.6985 191.295 60.5216C191.259 60.3447 191.159 60.1879 191.016 60.0818V60.0758Z" fill="#F2F2F2"/>
<path d="M198.117 61.4579L152.212 32.9309C151.966 32.7859 151.687 32.7106 151.403 32.7129C151.118 32.7153 150.84 32.7951 150.597 32.9441C150.353 33.0931 150.153 33.3059 150.017 33.5603C149.882 33.8148 149.816 34.1016 149.826 34.3909V50.6409C149.819 51.2409 150.12 51.7999 150.62 52.1139L196.545 80.0439C196.788 80.1867 197.065 80.2607 197.346 80.2585C197.628 80.2563 197.903 80.1779 198.145 80.0313C198.386 79.8847 198.585 79.6753 198.721 79.4244C198.857 79.1736 198.925 78.8904 198.918 78.6039L199.158 63.4449C199.168 63.0501 199.078 62.6594 198.895 62.311C198.713 61.9626 198.444 61.6686 198.117 61.4579Z" fill="#F47B56"/>
<path d="M187.128 69.8248C188.776 72.1718 191.672 72.8278 193.591 71.2978C195.51 69.7678 195.73 66.6218 194.083 64.2808C192.435 61.9408 189.539 61.2778 187.62 62.8088C185.701 64.3388 185.481 67.4778 187.128 69.8248Z" fill="white"/>
<path d="M182.621 58.5578L163.875 47.0658C163.714 46.9896 163.531 46.9772 163.361 47.031C163.192 47.0848 163.048 47.201 162.959 47.3569C162.869 47.5127 162.839 47.6971 162.876 47.8741C162.912 48.051 163.012 48.2078 163.155 48.3138L181.888 59.8058C182.049 59.8821 182.232 59.8945 182.402 59.8407C182.571 59.7869 182.715 59.6707 182.804 59.5148C182.894 59.359 182.924 59.1746 182.887 58.9976C182.851 58.8207 182.751 58.6639 182.608 58.5578H182.62H182.621ZM181.845 63.2589L156.03 47.3938C155.869 47.3176 155.686 47.3052 155.517 47.359C155.347 47.4128 155.204 47.529 155.114 47.6849C155.024 47.8407 154.994 48.0251 155.031 48.2021C155.067 48.379 155.167 48.5358 155.311 48.6418L181.132 64.4809C181.293 64.5571 181.476 64.5695 181.645 64.5157C181.814 64.4619 181.958 64.3457 182.048 64.1898C182.138 64.034 182.167 63.8496 182.131 63.6726C182.095 63.4957 181.995 63.3389 181.851 63.2328L181.845 63.2589Z" fill="#F2F2F2"/>
<path d="M186.597 63.3748L140.681 34.8468C140.435 34.7018 140.156 34.6265 139.871 34.6288C139.587 34.6312 139.309 34.711 139.066 34.86C138.822 35.009 138.622 35.2218 138.486 35.4762C138.351 35.7307 138.285 36.0175 138.295 36.3068V52.5578C138.293 52.8519 138.366 53.1415 138.506 53.3984C138.647 53.6553 138.85 53.8707 139.096 54.0238L185.02 81.9538C185.263 82.0966 185.54 82.1706 185.821 82.1684C186.102 82.1662 186.378 82.0878 186.619 81.9412C186.861 81.7946 187.06 81.5852 187.196 81.3343C187.332 81.0835 187.4 80.8003 187.393 80.5138L187.632 65.3548C187.653 64.5548 187.26 63.8038 186.597 63.3748V63.3748Z" fill="#68E1FD"/>
<path d="M186.597 63.3748L140.681 34.8468C140.435 34.7018 140.156 34.6265 139.871 34.6288C139.587 34.6312 139.309 34.711 139.066 34.86C138.822 35.009 138.622 35.2218 138.486 35.4762C138.351 35.7307 138.285 36.0175 138.295 36.3068V52.5578C138.293 52.8519 138.366 53.1415 138.506 53.3984C138.647 53.6553 138.85 53.8707 139.096 54.0238L185.02 81.9538C185.263 82.0966 185.54 82.1706 185.821 82.1684C186.102 82.1662 186.378 82.0878 186.619 81.9412C186.861 81.7946 187.06 81.5852 187.196 81.3343C187.332 81.0835 187.4 80.8003 187.393 80.5138L187.632 65.3548C187.653 64.5548 187.26 63.8038 186.597 63.3748V63.3748Z" fill="#68E1FD"/>
<path d="M175.603 71.7408C177.25 74.0888 180.147 74.7448 182.066 73.2138C183.984 71.6838 184.205 68.5388 182.558 66.1978C180.911 63.8578 178.014 63.1948 176.095 64.7248C174.176 66.2548 173.974 69.3948 175.603 71.7408V71.7408Z" fill="white"/>
<path d="M171.096 60.4738L152.357 48.9828C152.196 48.9057 152.013 48.8926 151.843 48.9461C151.673 48.9996 151.529 49.1159 151.439 49.2721C151.349 49.4284 151.319 49.6133 151.356 49.7906C151.392 49.968 151.493 50.125 151.637 50.2308L170.37 61.7228C170.531 61.8 170.714 61.8131 170.884 61.7595C171.054 61.706 171.198 61.5897 171.289 61.4335C171.379 61.2773 171.408 61.0924 171.372 60.915C171.335 60.7377 171.235 60.5807 171.09 60.4748H171.096V60.4738ZM170.32 65.1498L144.499 49.3098C144.338 49.2336 144.155 49.2212 143.986 49.275C143.816 49.3288 143.673 49.445 143.583 49.6008C143.493 49.7567 143.463 49.9411 143.5 50.1181C143.536 50.295 143.636 50.4518 143.78 50.5578L169.6 66.3978C169.761 66.475 169.944 66.4881 170.114 66.4345C170.284 66.381 170.428 66.2647 170.518 66.1085C170.609 65.9523 170.638 65.7674 170.602 65.59C170.565 65.4127 170.464 65.2557 170.32 65.1498Z" fill="#F2F2F2"/>
<path d="M126.334 61.7799C123.367 64.3819 121.123 67.7328 119.826 71.4969C117.542 77.9269 123.254 88.4359 123.254 88.4359L132.14 81.2659" fill="#FF8F6F"/>
<path d="M125.375 146.803L122.963 145.446L123.595 141.935C123.595 141.935 127.186 142.282 127.501 143.581" fill="#003B94"/>
<path d="M126.258 146.751C126.801 146.411 127.369 146.108 127.931 145.806C129.325 145.028 131.339 144.224 132.197 142.764C132.373 142.469 132.457 142.126 132.436 141.781C132.416 141.437 132.293 141.106 132.084 140.835C130.822 139.279 128.057 141.838 126.644 140.115C126.366 139.774 126.233 134.365 126.233 134.365L120.856 135.845C120.856 135.845 119.947 146.713 120.048 147.382C120.148 148.05 121.998 148.668 121.998 148.668C122.549 148.549 123.075 148.331 123.551 148.025C124.112 147.607 123.601 142.507 124.32 143.221C125.041 143.935 125.355 146.726 125.355 146.726C125.655 146.772 125.958 146.78 126.258 146.751V146.751Z" fill="#F47B56"/>
<path d="M135.643 152.057L133.233 150.719L133.864 147.208C133.864 147.208 137.455 147.555 137.771 148.854" fill="#003B94"/>
<path d="M136.553 152.005C137.096 151.665 137.664 151.362 138.225 151.06C139.62 150.282 141.634 149.478 142.492 148.018C142.668 147.723 142.751 147.38 142.731 147.035C142.711 146.691 142.588 146.36 142.378 146.089C141.116 144.533 138.352 147.092 136.938 145.369C136.66 145.028 136.527 139.619 136.527 139.619L131.15 141.099C131.15 141.099 130.235 152.005 130.336 152.649C130.436 153.292 132.286 153.935 132.286 153.935C132.837 153.816 133.363 153.598 133.839 153.292C134.4 152.874 133.889 147.774 134.608 148.488C135.328 149.202 135.643 151.993 135.643 151.993C135.945 152.035 136.251 152.039 136.553 152.005Z" fill="#F47B56"/>
<path d="M118.123 116.726L116.538 138.314C116.538 138.314 119.063 141.864 127.528 139.89L127.609 125.337L118.123 116.726ZM127.9 121.003C127.716 122.861 127.9 143.363 127.9 143.363C127.9 143.363 130.241 147.825 140.435 143.363L140.289 125.941" fill="#3E2928"/>
<path d="M117.334 123.857C118.028 124.347 118.268 121.832 118.993 122.263C121.634 123.826 124.437 125.085 127.35 126.018H127.413C127.483 125.984 127.558 125.964 127.635 125.96C127.712 125.956 127.79 125.968 127.862 125.995C127.935 126.022 128.001 126.063 128.057 126.117C128.114 126.171 128.159 126.236 128.19 126.308C129.99 126.855 131.821 127.284 133.675 127.594C136.054 127.98 138.023 126.185 140.465 126.064C140.465 116.533 140.51 89.4069 136.527 83.6189L124.743 79.5809C124.686 80.5709 119.025 87.2589 119.164 95.4139C119.321 104.604 118.148 113.272 117.945 116.147C117.914 116.636 117.359 123.337 117.334 123.857V123.857Z" fill="#3E2928"/>
<path d="M137.613 72.6608L136.527 83.5938C136.527 83.5938 127.736 83.9538 123.948 81.2908V72.0178" fill="#FF8F6F"/>
<path d="M148.791 65.4649L147.895 66.7119C148.372 65.6972 148.794 64.6559 149.157 63.5929C149.41 62.8669 148.267 62.5769 148.014 63.3039L147.882 63.6769C147.992 63.2909 148.095 62.9029 148.191 62.5129C148.212 62.4357 148.218 62.355 148.208 62.2755C148.197 62.1961 148.172 62.1195 148.132 62.0503C148.093 61.9811 148.04 61.9206 147.977 61.8726C147.914 61.8245 147.842 61.7897 147.766 61.7704C147.69 61.751 147.61 61.7474 147.533 61.7598C147.455 61.7721 147.381 61.8003 147.314 61.8424C147.247 61.8846 147.189 61.94 147.144 62.0054C147.098 62.0707 147.066 62.1447 147.049 62.2229C146.801 63.2325 146.504 64.2287 146.159 65.2079C146.352 64.3387 146.491 63.458 146.576 62.5709C146.652 61.8059 145.471 61.8379 145.401 62.5709C145.303 63.5809 145.127 64.5809 144.872 65.5609C144.871 65.2157 144.839 64.8712 144.776 64.5319C144.768 64.4466 144.742 64.3642 144.699 64.29C144.657 64.2159 144.6 64.1518 144.531 64.1019C144.499 63.9669 144.461 63.8335 144.417 63.7019C144.373 63.5672 144.283 63.4527 144.164 63.3788C144.044 63.3048 143.903 63.2761 143.765 63.2976C143.627 63.3191 143.501 63.3894 143.409 63.4963C143.317 63.6032 143.265 63.7397 143.261 63.8819L143.186 68.3839C142.972 68.8509 142.694 69.2839 142.36 69.6709C142.927 70.0709 143.475 70.5009 144 70.9569C144.469 71.3599 144.916 71.7899 145.339 72.2429C145.717 71.7629 146.081 71.2739 146.431 70.7769C146.474 70.7393 146.512 70.6959 146.544 70.6479C147.595 69.0627 148.681 67.5016 149.801 65.9659C150.268 65.4389 149.239 64.8539 148.791 65.4649V65.4649Z" fill="#FFB5A9"/>
<path d="M132.034 62.6929C132.034 62.6929 136.187 63.8309 137.872 66.5519C138.927 68.4344 139.857 70.3872 140.655 72.3969L143.723 67.5419C143.723 67.5419 147.446 68.7059 148.923 70.5709C148.923 70.5709 144.506 80.4109 140.655 81.2529C136.805 82.0949 132.716 75.4779 132.716 75.4779C132.716 75.4779 131.87 78.2429 132.034 75.2909" fill="#FF8F6F"/>
<path d="M134.672 73.2079C133.465 72.2073 132.553 70.8849 132.039 69.3879C131.541 67.6579 132.166 66.1399 132.746 64.5319C133.375 62.9383 133.742 61.2501 133.832 59.5349C133.883 57.8509 133.694 56.1649 133.58 54.4869C133.564 54.4152 133.564 54.3406 133.58 54.2689C133.025 52.3709 131.888 50.7639 129.647 50.5709C123.847 50.0689 123.519 56.6159 123.564 59.2779C123.607 61.9409 123.886 63.7409 121.961 64.8539C120.035 65.9659 118.646 68.8859 120.483 71.2459C122.32 73.6059 120.672 72.7449 119.448 74.8409C118.224 76.9379 118.539 79.5549 121.051 80.5009C123.563 81.4459 135.239 79.6709 136.313 78.5709C136.694 78.1279 136.891 77.5513 136.862 76.9629C136.6 75.4831 135.822 74.1496 134.672 73.2079Z" fill="#007F68"/>
<path d="M140.378 19.2129C141.361 20.6546 141.929 22.3476 142.018 24.1009C142.128 24.9037 141.936 25.7191 141.482 26.3839C141.288 26.6008 141.029 26.7457 140.746 26.7959C140.462 26.8461 140.17 26.7986 139.917 26.6609C139.597 26.531 139.309 26.3333 139.071 26.0809C138.857 25.8764 138.674 25.6405 138.528 25.3809L138.377 25.0789C138.336 25.1579 138.285 25.2309 138.225 25.2969C138.075 25.4169 137.896 25.4939 137.708 25.5219C137.392 25.5819 137.066 25.5419 136.774 25.4069C136.076 25.0992 135.495 24.5685 135.119 23.8949C134.667 23.1635 134.414 22.3222 134.387 21.4579C134.294 20.7579 134.509 20.0519 134.974 19.5279C135.174 19.3313 135.429 19.2024 135.704 19.1587C135.978 19.1151 136.259 19.1588 136.509 19.2839C136.762 19.3869 136.994 19.5349 137.196 19.7219C137.368 19.8709 137.521 20.0419 137.651 20.2299L137.765 20.4359V19.8629L139.027 20.3649L139.153 23.9789C139.162 24.2379 139.24 24.4889 139.38 24.7059C139.499 24.9149 139.68 25.0789 139.898 25.1759C140.508 25.4199 140.79 24.8839 140.744 23.5669C140.68 22.2634 140.258 21.0044 139.525 19.9339C138.866 18.8447 137.888 17.9945 136.729 17.5039C136.308 17.2861 135.833 17.2021 135.365 17.2627C134.897 17.3233 134.458 17.5258 134.104 17.8439C133.727 18.2298 133.44 18.6972 133.264 19.2114C133.088 19.7257 133.027 20.2737 133.087 20.8149C133.16 22.1937 133.596 23.527 134.35 24.6739C134.951 25.8066 135.896 26.7094 137.045 27.2459C137.445 27.4159 137.874 27.5009 138.307 27.4959C138.589 27.5159 138.872 27.4629 139.128 27.3419L139.38 27.2009L140.144 28.6479L140.018 28.7379C139.898 28.8059 139.773 28.8669 139.645 28.9179C139.444 29.0069 139.232 29.0679 139.014 29.0979C138.735 29.136 138.453 29.136 138.175 29.0979C137.809 29.0533 137.45 28.9602 137.108 28.8209C136.136 28.3951 135.273 27.7487 134.584 26.9309C133.767 26.0108 133.106 24.9588 132.627 23.8179C132.148 22.7287 131.874 21.5574 131.819 20.3649C131.751 19.3625 131.952 18.36 132.4 17.4649C132.772 16.7136 133.414 16.1376 134.192 15.8569C135.008 15.5831 135.894 15.6287 136.679 15.9849C138.21 16.6445 139.503 17.7729 140.378 19.2139V19.2129ZM137.594 23.7859C137.801 23.5159 137.894 23.1739 137.853 22.8339C137.843 22.4146 137.728 22.005 137.518 21.6439C137.347 21.3288 137.078 21.0803 136.754 20.9369C136.63 20.8719 136.489 20.8469 136.351 20.8653C136.212 20.8837 136.083 20.9446 135.979 21.0399C135.87 21.1661 135.788 21.3147 135.74 21.4756C135.692 21.6366 135.679 21.8061 135.7 21.9729C135.715 22.3969 135.839 22.8089 136.06 23.1689C136.242 23.4949 136.524 23.7529 136.862 23.9019C137.104 24.0289 137.4 23.9819 137.594 23.7859V23.7859ZM214.899 88.8479C215.884 90.2885 216.452 91.9816 216.54 93.7349C216.65 94.5375 216.458 95.3529 216.004 96.0179C215.81 96.2341 215.551 96.3786 215.267 96.4287C214.984 96.4788 214.692 96.4318 214.438 96.2949C214.12 96.1632 213.832 95.9657 213.592 95.7149C213.379 95.5093 213.196 95.2736 213.05 95.0149L212.898 94.7129C212.856 94.7909 212.805 94.864 212.746 94.9309C212.597 95.0509 212.419 95.1299 212.229 95.1559C211.916 95.2199 211.591 95.1819 211.301 95.0469C210.603 94.7375 210.022 94.2046 209.648 93.5289C209.191 92.7969 208.936 91.953 208.909 91.0859C208.812 90.3859 209.027 89.6779 209.497 89.1559C209.696 88.9601 209.949 88.8316 210.222 88.788C210.495 88.7443 210.775 88.7876 211.023 88.9119C211.276 89.0139 211.51 89.1619 211.711 89.3489C211.884 89.5009 212.036 89.6739 212.166 89.8639L212.286 90.0689V89.4969L213.548 89.9919L213.675 93.6059C213.685 93.8649 213.764 94.1159 213.901 94.3329C214.02 94.5429 214.201 94.7069 214.419 94.8029C215.05 95.0469 215.309 94.5129 215.271 93.1949C215.207 91.8894 214.785 90.6283 214.053 89.5549C213.395 88.4696 212.419 87.6219 211.264 87.1309C210.843 86.9129 210.369 86.8282 209.901 86.8878C209.433 86.9473 208.993 87.1483 208.638 87.4649C208.263 87.8553 207.979 88.3268 207.807 88.8445C207.636 89.3622 207.581 89.9127 207.647 90.4549C207.718 91.8338 208.154 93.1674 208.909 94.3139C209.533 95.4199 210.489 96.2924 211.637 96.8029C212.036 96.9729 212.465 97.0599 212.898 97.0599C213.18 97.0769 213.462 97.0239 213.719 96.9049L213.971 96.7639L214.735 98.2109L214.608 98.3009C214.489 98.3699 214.364 98.4299 214.236 98.4809C214.033 98.5661 213.821 98.6265 213.605 98.6609C213.324 98.6988 213.04 98.6988 212.759 98.6609C212.395 98.6139 212.039 98.5188 211.699 98.3779C210.728 97.9539 209.865 97.3095 209.175 96.4939C208.357 95.5714 207.696 94.5171 207.217 93.3739C206.738 92.2851 206.464 91.114 206.41 89.9219C206.341 88.9213 206.542 87.9207 206.991 87.0279C207.363 86.2756 208.005 85.6976 208.783 85.4129C209.601 85.1424 210.489 85.1887 211.276 85.5429C212.789 86.2366 214.055 87.3912 214.899 88.8479V88.8479ZM212.115 93.4199C212.324 93.1509 212.42 92.8089 212.38 92.4679C212.369 92.048 212.252 91.638 212.04 91.2779C211.872 90.9627 211.605 90.7139 211.282 90.5709C211.159 90.5048 211.018 90.4787 210.879 90.4961C210.741 90.5134 210.611 90.5733 210.506 90.6679C210.395 90.793 210.313 90.9411 210.263 91.102C210.214 91.263 210.2 91.4328 210.222 91.5999C210.236 92.0219 210.361 92.4329 210.582 92.7899C210.763 93.1179 211.045 93.3779 211.383 93.5299C211.501 93.5925 211.635 93.6155 211.767 93.5957C211.898 93.576 212.02 93.5145 212.115 93.4199" fill="#F47B56"/>
<path style="mix-blend-mode:multiply" opacity="0.25" d="M89.1206 116.269L67.7559 103.883L46.3971 116.295C46.3971 116.295 58.2824 123.857 68.9167 130.211C75.6703 125.349 81.6723 119.787 89.1206 116.269V116.269Z" fill="url(#paint4_linear)"/>
<g filter="url(#filter0_d)">
<path d="M50.5358 81.4708V108.406L71.1254 120.423L94.374 106.41V79.4758" fill="black"/>
</g>
<path d="M50.5358 81.4708V108.406L71.1254 120.423L94.374 106.41V79.4758" fill="#FF9271"/>
<path d="M71.1254 93.4888V120.424L94.374 106.411V79.4758L71.1254 93.4888Z" fill="#DF5C34"/>
<path d="M50.5358 81.4709L74.4252 67.5929L94.373 79.4759L71.1254 93.4889L50.5358 81.4709Z" fill="#F47B56"/>
<path d="M71.6719 73.7749C74.0943 73.6083 76.5129 74.1513 78.6424 75.3399C79.862 76.0709 80.5283 76.8339 80.6225 77.6299C80.7167 78.4249 80.3144 79.1169 79.3655 79.6999C78.9153 79.9834 78.4193 80.1832 77.9006 80.2899C77.4748 80.3929 77.0371 80.4389 76.5995 80.4249L76.1217 80.3869C76.1668 80.4959 76.1962 80.6099 76.21 80.7269C76.1951 81.0037 76.1084 81.2715 75.9588 81.5029C75.7096 81.9329 75.3544 82.2889 74.9285 82.5349C73.9352 83.1364 72.7967 83.443 71.6415 83.4199C70.446 83.453 69.2648 83.1491 68.2279 82.5419C67.2477 81.9519 66.7453 81.2589 66.707 80.4639C66.7108 80.0429 66.8307 79.6315 67.0529 79.2766C67.2752 78.9217 67.5909 78.6377 67.964 78.4569C68.3221 78.2291 68.7122 78.0582 69.1208 77.9499C69.4463 77.8541 69.7814 77.7961 70.1197 77.7769H70.466L69.8371 77.3919L71.6032 76.2699L75.6948 78.7259C76.0077 78.8977 76.3575 78.9875 76.7128 78.9875C77.0682 78.9875 77.418 78.8977 77.7309 78.7259C78.5982 78.1749 78.2882 77.4499 76.8007 76.5519C75.2198 75.6646 73.4227 75.2572 71.6219 75.3779C69.7132 75.4018 67.846 75.9489 66.2164 76.9619C64.7338 77.9069 63.9989 79.0339 64.0107 80.3419C64.0107 81.6249 64.7956 82.7659 66.3234 83.6829C67.9914 84.6329 69.8842 85.0929 71.7916 85.0109C73.6915 85.0428 75.5627 84.5367 77.1971 83.5489C77.7624 83.2071 78.2695 82.7737 78.6983 82.2659C78.9858 81.9559 79.2007 81.5829 79.3273 81.1759L79.4156 80.7719L81.7469 80.9059C81.7508 80.9789 81.7508 81.0519 81.7469 81.1249C81.7047 81.3209 81.6478 81.5139 81.5772 81.7019C81.4761 82.0019 81.3417 82.2919 81.1749 82.5609C80.9355 82.9249 80.6578 83.2609 80.3458 83.5609C79.9336 83.9659 79.4823 84.3229 78.9946 84.6259C77.5915 85.4844 76.0372 86.0551 74.4193 86.3059C72.656 86.6198 70.8556 86.6522 69.0825 86.4019C67.4708 86.2086 65.9131 85.6898 64.5003 84.8759C63.3601 84.2603 62.4472 83.2835 61.8991 82.0929C61.6751 81.5735 61.5595 81.0123 61.5595 80.4449C61.5595 79.8775 61.6751 79.3164 61.8991 78.7969C62.4421 77.5842 63.346 76.5766 64.4826 75.9169C66.648 74.5605 69.1307 73.8208 71.6719 73.7749V73.7749ZM73.9601 80.4059C73.9189 80.1868 73.8259 79.9811 73.6891 79.8069C73.5523 79.6326 73.3759 79.495 73.1751 79.4059C72.6797 79.1086 72.1154 78.9515 71.5404 78.9509C71.0064 78.9303 70.4781 79.0682 70.0196 79.3479C69.6428 79.5349 69.4004 79.9209 69.3916 80.3479C69.4485 80.7929 69.7301 81.1749 70.1324 81.3549C70.6388 81.6498 71.2144 81.7985 71.7975 81.7849C72.358 81.7993 72.9113 81.6528 73.3939 81.3619C73.7599 81.1919 73.9925 80.8159 73.9856 80.4059" fill="#3E2928"/>
<defs>
<filter id="filter0_d" x="0.535828" y="54.4758" width="143.838" height="140.947" filterUnits="userSpaceOnUse" color-interpolation-filters="sRGB">
<feFlood flood-opacity="0" result="BackgroundImageFix"/>
<feColorMatrix in="SourceAlpha" type="matrix" values="0 0 0 0 0 0 0 0 0 0 0 0 0 0 0 0 0 0 127 0" result="hardAlpha"/>
<feOffset dy="25"/>
<feGaussianBlur stdDeviation="25"/>
<feColorMatrix type="matrix" values="0 0 0 0 0.209139 0 0 0 0 0.0691446 0 0 0 0 0.478091 0 0 0 0.497159 0"/>
<feBlend mode="normal" in2="BackgroundImageFix" result="effect1_dropShadow"/>
<feBlend mode="normal" in="SourceGraphic" in2="effect1_dropShadow" result="shape"/>
</filter>
<linearGradient id="paint0_linear" x1="162.102" y1="101.866" x2="155.069" y2="111.216" gradientUnits="userSpaceOnUse">
<stop stop-color="#78B46A"/>
<stop offset="0.03" stop-color="#7F3500"/>
<stop offset="1" stop-color="white"/>
</linearGradient>
<linearGradient id="paint1_linear" x1="136.698" y1="143.213" x2="121.994" y2="159.029" gradientUnits="userSpaceOnUse">
<stop stop-color="#78B46A"/>
<stop offset="0.03" stop-color="#7F3500"/>
<stop offset="1" stop-color="white"/>
</linearGradient>
<linearGradient id="paint2_linear" x1="105.392" y1="75.6808" x2="94.3722" y2="87.5364" gradientUnits="userSpaceOnUse">
<stop stop-color="#78B46A"/>
<stop offset="0.03" stop-color="#7F3500"/>
<stop offset="1" stop-color="white"/>
</linearGradient>
<linearGradient id="paint3_linear" x1="206.202" y1="75.8168" x2="199.642" y2="71.1245" gradientUnits="userSpaceOnUse">
<stop stop-color="white" stop-opacity="0"/>
<stop offset="0.99" stop-color="#DC841E"/>
</linearGradient>
<linearGradient id="paint4_linear" x1="81.5086" y1="111.15" x2="66.591" y2="127.197" gradientUnits="userSpaceOnUse">
<stop stop-color="#78B46A"/>
<stop offset="0.03" stop-color="#7F3500"/>
<stop offset="1" stop-color="white"/>
</linearGradient>
</defs>
</svg>
